<svg height="512pt" viewBox="-50 0 511 512" width="512pt" xmlns="http://www.w3.org/2000/svg"><path d="m172.230469 311.285156h68.261719v72.933594h-68.261719zm0 0" fill="#e0e0e2"/><path d="m80.933594 347.753906c0 20.140625-16.328125 36.464844-36.464844 36.464844-20.140625 0-36.46875-16.324219-36.46875-36.464844s16.328125-36.46875 36.46875-36.46875c20.136719 0 36.464844 16.328125 36.464844 36.46875zm0 0" fill="#e0e0e2"/><path d="m57.785156 347.753906c0 7.355469-5.964844 13.316406-13.316406 13.316406-7.355469 0-13.320312-5.960937-13.320312-13.316406 0-7.355468 5.964843-13.316406 13.320312-13.316406 7.351562 0 13.316406 5.960938 13.316406 13.316406zm0 0" fill="#57a4ff"/><path d="m121.125 384.21875h-40.191406v-72.933594h67.597656v45.527344c-10.703125 10.703125-16.703125 16.703125-27.40625 27.40625zm0 0" fill="#787680"/><path d="m38.894531 504.5h-21.9375v-120.28125h55.023438v87.199219c-12.921875 12.917969-20.164063 20.164062-33.085938 33.082031zm0 0" fill="#c6c5ca"/><path d="m178.851562 384.21875h55.023438v120.28125h-55.023438zm0 0" fill="#c6c5ca"/><path d="m404.722656 347.753906c0 20.140625-16.324218 36.464844-36.464844 36.464844-20.140624 0-36.46875-16.324219-36.46875-36.464844s16.328126-36.46875 36.46875-36.46875c20.140626 0 36.464844 16.328125 36.464844 36.46875zm0 0" fill="#e0e0e2"/><path d="m381.574219 347.753906c0 7.355469-5.960938 13.316406-13.316407 13.316406-7.355468 0-13.316406-5.960937-13.316406-13.316406 0-7.355468 5.960938-13.316406 13.316406-13.316406 7.355469 0 13.316407 5.960938 13.316407 13.316406zm0 0" fill="#57a4ff"/><path d="m291.601562 384.21875h40.1875v-72.933594h-67.597656v45.527344c10.703125 10.703125 16.707032 16.703125 27.410156 27.40625zm0 0" fill="#787680"/><path d="m373.828125 504.5h21.941406v-120.28125h-55.023437v87.199219c12.917968 12.917969 20.164062 20.164062 33.082031 33.082031zm0 0" fill="#c6c5ca"/><path d="m158.273438 156.667969c8.015624-18.625 26.527343-31.667969 48.089843-31.667969s40.070313 13.042969 48.085938 31.667969h63.328125v-37.753907c0-61.53125-49.882813-111.414062-111.414063-111.414062-61.535156 0-111.417969 49.882812-111.417969 111.414062v37.753907zm0 0" fill="#c6c5ca"/><path d="m254.449219 198c-8.015625 18.625-26.523438 31.667969-48.085938 31.667969s-40.074219-13.042969-48.089843-31.667969h-63.328126v113.285156h222.832032v-113.285156zm0 0" fill="#c6c5ca"/><path d="m305.863281 156.667969h-51.414062c-8.015625-18.625-26.523438-31.667969-48.085938-31.667969s-40.074219 13.042969-48.089843 31.667969h-51.410157v41.332031h51.410157c8.015624 18.625 26.527343 31.667969 48.089843 31.667969s40.070313-13.042969 48.085938-31.667969h51.414062zm0 0" fill="#787680"/><path d="m265.195312 177.332031c0 15.925781-12.910156 28.832031-28.832031 28.832031-15.925781 0-28.835937-12.90625-28.835937-28.832031 0-15.921875 12.910156-28.832031 28.835937-28.832031 15.921875 0 28.832031 12.910156 28.832031 28.832031zm0 0" fill="#57565c"/><path d="m235.195312 177.332031c0 15.925781-12.910156 28.832031-28.832031 28.832031-15.925781 0-28.835937-12.90625-28.835937-28.832031 0-15.921875 12.910156-28.832031 28.835937-28.832031 15.921875 0 28.832031 12.910156 28.832031 28.832031zm0 0" fill="#ff7956"/><path d="m172.230469 311.285156h30v72.933594h-30zm0 0" fill="#c6c5ca"/><path d="m38 347.753906c0-14.792968 8.808594-27.527344 21.46875-33.25-4.578125-2.066406-9.65625-3.21875-15-3.21875-20.140625 0-36.46875 16.328125-36.46875 36.46875s16.328125 36.464844 36.46875 36.464844c5.34375 0 10.421875-1.152344 15-3.21875-12.660156-5.71875-21.46875-18.453125-21.46875-33.246094zm0 0" fill="#c6c5ca"/><path d="m80.933594 311.285156h30v72.933594h-30zm0 0" fill="#57565c"/><path d="m46.957031 384.21875h-30v120.28125h21.941407c2.933593-2.933594 5.574218-5.578125 8.058593-8.058594zm0 0" fill="#898890"/><path d="m178.851562 384.21875h30v120.28125h-30zm0 0" fill="#898890"/><path d="m361.789062 347.753906c0-14.792968 8.808594-27.527344 21.46875-33.25-4.574218-2.066406-9.652343-3.21875-15-3.21875-20.140624 0-36.46875 16.328125-36.46875 36.46875s16.328126 36.464844 36.46875 36.464844c5.347657 0 10.425782-1.152344 15-3.21875-12.660156-5.71875-21.46875-18.453125-21.46875-33.246094zm0 0" fill="#c6c5ca"/><path d="m294.191406 356.8125v-45.527344h-30v45.527344l27.410156 27.40625h30c-10.703124-10.703125-16.707031-16.703125-27.410156-27.40625zm0 0" fill="#57565c"/><path d="m370.746094 471.417969v-87.199219h-30v87.199219c12.917968 12.917969 20.164062 20.164062 33.082031 33.082031h21.941406v-8.058594zm0 0" fill="#898890"/><path d="m221.363281 8.5c-4.90625-.660156-9.914062-1-15-1-61.535156 0-111.417969 49.882812-111.417969 111.414062v37.753907h30v-37.753907c0-56.445312 41.976563-103.085937 96.417969-110.414062zm0 0" fill="#898890"/><path d="m94.945312 198h30v113.285156h-30zm0 0" fill="#898890"/><path d="m221.363281 127.183594c-4.753906-1.421875-9.789062-2.183594-15-2.183594-21.5625 0-40.074219 13.042969-48.089843 31.667969h30c6.078124-14.121094 18.191406-25.035157 33.089843-29.484375zm0 0" fill="#57565c"/><path d="m106.863281 156.667969h30v41.332031h-30zm0 0" fill="#57565c"/><path d="m188.273438 198h-30c8.015624 18.625 26.527343 31.667969 48.089843 31.667969 5.210938 0 10.246094-.765625 15-2.183594-14.898437-4.453125-27.011719-15.363281-33.089843-29.484375zm0 0" fill="#57565c"/><path d="m207.527344 177.332031c0-10.429687 5.539062-19.566406 13.835937-24.628906-4.371093-2.667969-9.507812-4.203125-15-4.203125-15.925781 0-28.835937 12.910156-28.835937 28.832031 0 15.925781 12.910156 28.832031 28.835937 28.832031 5.492188 0 10.628907-1.535156 15-4.203124-8.296875-5.0625-13.835937-14.199219-13.835937-24.628907zm0 0" fill="#ff3f62"/><path d="m44.464844 326.9375c-11.476563 0-20.816406 9.335938-20.816406 20.816406 0 11.476563 9.339843 20.816406 20.816406 20.816406 11.480468 0 20.816406-9.339843 20.816406-20.816406 0-11.480468-9.335938-20.816406-20.816406-20.816406zm0 26.632812c-3.207032 0-5.816406-2.609374-5.816406-5.816406 0-3.207031 2.609374-5.816406 5.816406-5.816406 3.210937 0 5.816406 2.609375 5.816406 5.816406.003906 3.207032-2.605469 5.816406-5.816406 5.816406zm0 0"/><path d="m64.476562 468.3125-28.6875 28.6875h-11.332031v-92.78125h-15v107.78125h32.546875l37.472656-37.476562v-70.304688h-15zm0 0"/><path d="m368.257812 368.570312c11.480469 0 20.816407-9.339843 20.816407-20.816406 0-11.480468-9.339844-20.816406-20.816407-20.816406-11.476562 0-20.816406 9.335938-20.816406 20.816406 0 11.476563 9.335938 20.816406 20.816406 20.816406zm0-26.632812c3.207032 0 5.816407 2.609375 5.816407 5.816406 0 3.207032-2.609375 5.816406-5.816407 5.816406-3.207031 0-5.816406-2.609374-5.816406-5.816406 0-3.207031 2.609375-5.816406 5.816406-5.816406zm0 0"/><path d="m339.292969 380.800781c7.738281 6.796875 17.878906 10.917969 28.964843 10.917969 24.242188 0 43.964844-19.722656 43.964844-43.964844 0-24.242187-19.722656-43.96875-43.964844-43.96875-11.085937 0-21.222656 4.125-28.964843 10.917969v-10.917969h-14.015625v-113.285156h-75.765625l-1.953125 4.535156c-7.09375 16.480469-23.261719 27.128906-41.195313 27.128906-17.933593 0-34.105469-10.648437-41.199219-27.128906l-1.949218-4.535156h-75.769532v113.285156h-14.011718v10.917969c-7.742188-6.792969-17.882813-10.917969-28.96875-10.917969-24.242188 0-43.964844 19.726563-43.964844 43.96875 0 24.242188 19.722656 43.964844 43.964844 43.964844 11.085937 0 21.226562-4.121094 28.96875-10.917969v10.917969h50.796875l31.800781-31.800781v-41.132813h8.699219v72.933594h83.265625v-72.933594h8.695312v41.132813l31.800782 31.800781h50.800781zm28.964843-62.015625c15.972657 0 28.964844 12.996094 28.964844 28.96875s-12.992187 28.964844-28.964844 28.964844c-15.972656 0-28.964843-12.992188-28.964843-28.964844s12.992187-28.96875 28.964843-28.96875zm-323.792968 57.933594c-15.972656 0-28.964844-12.992188-28.964844-28.964844s12.992188-28.96875 28.964844-28.96875 28.96875 12.996094 28.96875 28.96875-12.996094 28.964844-28.96875 28.964844zm96.566406-23.015625-23.015625 23.015625h-29.582031v-57.933594h52.597656zm38.699219-34.917969h19.132812l-.003906 57.933594h-19.128906zm53.265625 57.933594h-19.136719l.003906-57.933594h19.132813zm-130.550782-72.933594v-98.285156h51.121094c10.339844 19.390625 30.550782 31.664062 52.796875 31.664062 22.242188 0 42.453125-12.273437 52.792969-31.664062h51.121094v98.285156zm221.847657 72.933594h-29.585938l-23.015625-23.015625v-34.917969h52.601563zm0 0"/><path d="m388.269531 497h-11.335937l-28.6875-28.6875v-64.09375h-15v70.304688l37.476562 37.476562h32.546875v-107.78125h-15zm0 0"/><path d="m165.164062 159.632812c7.09375-16.484374 23.265626-27.132812 41.199219-27.132812 17.933594 0 34.101563 10.648438 41.195313 27.132812l1.953125 4.53125h75.765625v-45.25c0-65.570312-53.34375-118.914062-118.914063-118.914062-65.570312 0-118.917969 53.34375-118.917969 118.914062v45.25h75.769532zm-62.71875-10.46875v-30.25c0-57.296874 46.617188-103.914062 103.917969-103.914062 57.296875 0 103.914063 46.617188 103.914063 103.914062v30.25h-51.121094c-10.339844-19.386718-30.550781-31.664062-52.792969-31.664062-22.246093 0-42.457031 12.277344-52.796875 31.664062zm0 0"/><path d="m206.363281 141c-20.035156 0-36.335937 16.300781-36.335937 36.332031 0 20.035157 16.300781 36.335938 36.335937 36.335938 20.03125 0 36.332031-16.300781 36.332031-36.335938 0-20.03125-16.300781-36.332031-36.332031-36.332031zm0 57.667969c-11.765625 0-21.335937-9.570313-21.335937-21.335938 0-11.761719 9.570312-21.332031 21.335937-21.332031 11.761719 0 21.332031 9.570312 21.332031 21.332031 0 11.765625-9.570312 21.335938-21.332031 21.335938zm0 0"/><path d="m226.980469 497h-41.238281v-92.78125h-15v107.78125h71.238281v-107.78125h-15zm0 0"/><g fill="#fff"><path d="m216.980469 483.71875h-15v-28.71875h15zm0-38.71875h-15v-15h15zm0-25h-15v-15h15zm0 0"/><path d="m382.359375 476h-15v-21h15zm0-31h-15v-15h15zm0-25h-15v-15h15zm0 0"/><path d="m300.277344 118.914062h-15c0-26.679687-13.378906-51.375-35.789063-66.058593l8.222657-12.546875c26.652343 17.464844 42.566406 46.851562 42.566406 78.605468zm-58.703125-70.613281c-4.070313-2.039062-8.347657-3.734375-12.710938-5.035156l4.285157-14.375c5.199218 1.550781 10.292968 3.570313 15.148437 6zm-21.585938-7.125c-4.464843-.78125-9.050781-1.175781-13.625-1.175781v-15c5.4375 0 10.894531.472656 16.210938 1.402344zm0 0"/><path d="m300.277344 291.285156h-15v-26.285156h15zm0-36.285156h-15v-15h15zm0-25h-15v-15h15zm0 0"/></g></svg>